# xmcd
# Track frame offsets:
# 152
# 8992
# 21572
# 34612
# 45115
# 57125
# 66322
# 86650
# 98687
# 109422
# 128335
# 143737
# 154107
# 163927
# 179762
# 194002
# 210305
# 229042
# 245535
# 258042
#
# Disc length: 3714 seconds
# Revision: 0
# Processed by: cddbd v1.4PL0 Copyright (c) Steve Scherf et al.
# Submitted via: VisiTrax 2.9.5.180 - For more info visit www.synapsa.com
#
DISCID=0d0e8014
DTITLE=Various Artist - The Essential Series  Vol. II
DYEAR=1900
DGENRE=
TTITLE0=Porter Wagner and Dolly Parton - We'll Get Ahead Someday
TTITLE1=Porter Wagner and Dolly Parton - Please Don't Stop Loving Me
TTITLE2=Waylon Jennings - Are You Sure Hank Done It This Way
TTITLE3=Waylon Jennings - Only Daddy That'll Walk The Line
TTITLE4=Willie Nelson - Funny How Time Slips Away
TTITLE5=Chet Atkins - Yakey Sax
TTITLE6=Chet Atkings - Chet's Medley
TTITLE7=Eddy Arnold - Make The World Go Away
TTITLE8=Eddy Arnold - Take Me In Your Arms And Hold Me
TTITLE9=Keith Whitley - Don't Close Your Eyes
TTITLE10=Keith Whitley - Miame,  My Amy
TTITLE11=Connie Smith - Once A Day
TTITLE12=Connie Smith - Cincinnati Ohio
TTITLE13=Earl Thomas Conley - Don't Make It Easy For Me
TTITLE14=Earl Thomas Conley - Holding Her And Loving You
TTITLE15=Vince Gill - Oklahoma Boderline
TTITLE16=Dolly Parton and Kenny Rogers - Islands In The Stream
TTITLE17=Ronnie Milsap - Happy, Happy Birthday Baby
TTITLE18=Roster and Lloyd - Hard To Say No
TTITLE19=Foster and Lloyd - Crazy Over You
EXTD=
EXTT0=
EXTT1=
EXTT2=
EXTT3=
EXTT4=
EXTT5=
EXTT6=
EXTT7=
EXTT8=
EXTT9=
EXTT10=
EXTT11=
EXTT12=
EXTT13=
EXTT14=
EXTT15=
EXTT16=
EXTT17=
EXTT18=
EXTT19=
PLAYORDER=
